<svg xmlns="http://www.w3.org/2000/svg" viewBox="0 0 128 128">
    <path fill="#242938" d="M 1020.3 420.841 L 884.296 420.841 C 851.159 420.841 824.296 447.704 824.296 480.841 L 824.296 616.841 C 824.296 649.978 851.159 676.841 884.296 676.841 L 1020.3 676.841 C 1053.43 676.841 1080.3 649.978 1080.3 616.841 L 1080.3 480.841 C 1080.3 447.704 1053.43 420.841 1020.3 420.841 Z"/>
    <path fill="#7d51c4" d="M46.236 7.567h13.99v29.047h-13.99Zm0 59.668h13.99V96.28h-13.99Z"/>
    <path fill="#ffca00" d="M46.236 45.092h13.99v13.705h-13.99Z"/>
    <path fill="#7d51c4" d="M23.763 31.446h13.989V128h-13.99ZM68.245 91.2h13.99v29.046h-13.99Zm0-59.72h13.99v29.047h-13.99Z"/>
    <path fill="#e70488" d="M68.245 69.011h13.99v13.705h-13.99Z"/>
    <path fill="#7d51c4" d="M90.248 0h13.99v96.554h-13.99Z"/>
</svg>
