<svg xmlns="http://www.w3.org/2000/svg" viewBox="79.9507 468.6205 256.012 255.998" width="256.012px" height="255.998px">
  <g id="logo1" transform="matrix(0.9999999999999999, 0, 0, 0.9999999999999999, 223.04071709634997, 674.3105059358622)">
    <path fill="#242938" d="M 52.922 -205.69 L -83.082 -205.69 C -116.22 -205.69 -143.09 -178.83 -143.09 -145.69 L -143.09 -9.692 C -143.09 23.445 -116.22 50.308 -83.082 50.308 L 52.922 50.308 C 86.052 50.308 112.922 23.445 112.922 -9.692 L 112.922 -145.69 C 112.922 -178.83 86.052 -205.69 52.922 -205.69 Z"/>
    <g id="logo2" style="" transform="matrix(1.234232, 0, 0, 1.433586, 3.890224, 50.169344)">
      <path fill="#7d51c4" d="M -32.168 -142.6 L -16.325 -142.6 L -16.325 -113.56 L -32.168 -113.56 L -32.168 -142.6 Z M -32.168 -82.932 L -16.325 -82.932 L -16.325 -53.887 L -32.168 -53.887 L -32.168 -82.932 Z" style=""/>
      <path fill="#ffca00" d="M -32.168 -105.08 L -16.325 -105.08 L -16.325 -91.37 L -32.168 -91.37 L -32.168 -105.08 Z" style=""/>
      <path fill="#7d51c4" d="M -57.617 -118.72 L -41.775 -118.72 L -41.775 -22.167 L -57.618 -22.167 L -57.617 -118.72 Z M -7.245 -58.967 L 8.599 -58.967 L 8.599 -29.921 L -7.245 -29.921 L -7.245 -58.967 Z M -7.245 -118.69 L 8.599 -118.69 L 8.599 -89.64 L -7.245 -89.64 L -7.245 -118.69 Z" style=""/>
      <path fill="#e70488" d="M -7.245 -81.156 L 8.599 -81.156 L 8.599 -67.451 L -7.245 -67.451 L -7.245 -81.156 Z" style=""/>
      <path fill="#7d51c4" d="M 17.672 -150.17 L 33.515 -150.17 L 33.515 -53.613 L 17.672 -53.613 L 17.672 -150.17 Z" style=""/>
    </g>
  </g>
</svg>
